<svg width="18" height="20" viewBox="0 0 18 20" fill="none" xmlns="http://www.w3.org/2000/svg">
<path d="M1 3C0.447715 3 0 3.44772 0 4C0 4.55228 0.447715 5 1 5V3ZM17 5C17.5523 5 18 4.55228 18 4C18 3.44772 17.5523 3 17 3V5ZM12.7294 3.18807L11.7807 3.5043L11.7807 3.5043L12.7294 3.18807ZM12.0513 4.31623C12.226 4.84017 12.7923 5.12333 13.3162 4.94868C13.8402 4.77404 14.1233 4.20772 13.9487 3.68377L12.0513 4.31623ZM4.05132 3.68377C3.87667 4.20772 4.15983 4.77404 4.68377 4.94868C5.20772 5.12333 5.77404 4.84017 5.94868 4.31623L4.05132 3.68377ZM5.27064 3.18807L4.32196 2.87184V2.87184L5.27064 3.18807ZM11.2905 1.13878L11.6565 0.208163V0.208163L11.2905 1.13878ZM12.0927 1.71698L11.3256 2.35849L12.0927 1.71698ZM6.70951 1.13878L7.07551 2.06939L6.70951 1.13878ZM5.90729 1.71698L6.6744 2.35849L5.90729 1.71698ZM16 4C16 3.44772 15.5523 3 15 3C14.4477 3 14 3.44772 14 4H16ZM4 4C4 3.44772 3.55228 3 3 3C2.44772 3 2 3.44772 2 4H4ZM4.63803 18.673L5.09202 17.782H5.09202L4.63803 18.673ZM3.32698 17.362L2.43597 17.816H2.43597L3.32698 17.362ZM14.673 17.362L13.782 16.908V16.908L14.673 17.362ZM13.362 18.673L12.908 17.782H12.908L13.362 18.673ZM12 8C12 7.44772 11.5523 7 11 7C10.4477 7 10 7.44772 10 8H12ZM10 15C10 15.5523 10.4477 16 11 16C11.5523 16 12 15.5523 12 15H10ZM8 8C8 7.44772 7.55228 7 7 7C6.44772 7 6 7.44772 6 8H8ZM6 15C6 15.5523 6.44772 16 7 16C7.55228 16 8 15.5523 8 15H6ZM1 5H17V3H1V5ZM8.30643 2H9.69357V0H8.30643V2ZM11.7807 3.5043L12.0513 4.31623L13.9487 3.68377L13.678 2.87184L11.7807 3.5043ZM5.94868 4.31623L6.21933 3.5043L4.32196 2.87184L4.05132 3.68377L5.94868 4.31623ZM9.69357 2C10.6083 2 10.7908 2.01681 10.9245 2.06939L11.6565 0.208163C11.0845 -0.0168061 10.4376 0 9.69357 0V2ZM13.678 2.87184C13.4427 2.16597 13.2541 1.54699 12.8598 1.07547L11.3256 2.35849C11.4178 2.4687 11.4914 2.63653 11.7807 3.5043L13.678 2.87184ZM10.9245 2.06939C11.0803 2.13066 11.2182 2.23007 11.3256 2.35849L12.8598 1.07547C12.5376 0.690201 12.1239 0.391983 11.6565 0.208163L10.9245 2.06939ZM8.30643 0C7.56237 0 6.91551 -0.0168061 6.3435 0.208163L7.07551 2.06939C7.20921 2.01681 7.39173 2 8.30643 2V0ZM6.21933 3.5043C6.50858 2.63654 6.58224 2.4687 6.6744 2.35849L5.14017 1.07547C4.74586 1.54699 4.55725 2.16597 4.32196 2.87184L6.21933 3.5043ZM6.3435 0.208163C5.87612 0.391983 5.46236 0.690201 5.14017 1.07547L6.6744 2.35849C6.7818 2.23007 6.91972 2.13066 7.07551 2.06939L6.3435 0.208163ZM14 4V14.2H16V4H14ZM10.2 18H7.8V20H10.2V18ZM4 14.2V4H2V14.2H4ZM7.8 18C6.94342 18 6.36113 17.9992 5.91104 17.9624C5.47262 17.9266 5.24842 17.8617 5.09202 17.782L4.18404 19.564C4.66937 19.8113 5.18608 19.9099 5.74817 19.9558C6.2986 20.0008 6.97642 20 7.8 20V18ZM2 14.2C2 15.0236 1.99922 15.7014 2.04419 16.2518C2.09012 16.8139 2.18868 17.3306 2.43597 17.816L4.21799 16.908C4.1383 16.7516 4.07337 16.5274 4.03755 16.089C4.00078 15.6389 4 15.0566 4 14.2H2ZM5.09202 17.782C4.71569 17.5903 4.40973 17.2843 4.21799 16.908L2.43597 17.816C2.81947 18.5686 3.43139 19.1805 4.18404 19.564L5.09202 17.782ZM14 14.2C14 15.0566 13.9992 15.6389 13.9624 16.089C13.9266 16.5274 13.8617 16.7516 13.782 16.908L15.564 17.816C15.8113 17.3306 15.9099 16.8139 15.9558 16.2518C16.0008 15.7014 16 15.0236 16 14.2H14ZM10.2 20C11.0236 20 11.7014 20.0008 12.2518 19.9558C12.8139 19.9099 13.3306 19.8113 13.816 19.564L12.908 17.782C12.7516 17.8617 12.5274 17.9266 12.089 17.9624C11.6389 17.9992 11.0566 18 10.2 18V20ZM13.782 16.908C13.5903 17.2843 13.2843 17.5903 12.908 17.782L13.816 19.564C14.5686 19.1805 15.1805 18.5686 15.564 17.816L13.782 16.908ZM10 8V15H12V8H10ZM6 8V15H8V8H6Z" fill="#131A29"/>
</svg>
