<svg width="20" height="20" viewBox="0 0 20 20" fill="none" xmlns="http://www.w3.org/2000/svg">
<path d="M3.56731 12.3303L2.86023 11.6232L3.56731 12.3303ZM18.0674 1.83055L18.7746 1.12346L18.0674 1.83055ZM14.0711 1.82648L14.7782 2.53358L14.0711 1.82648ZM4.3603 4.12334C3.96977 4.51386 3.96977 5.14703 4.3603 5.53755C4.75082 5.92808 5.38399 5.92808 5.77451 5.53755L4.3603 4.12334ZM11.3602 4.53761C11.7507 4.92817 12.3839 4.92823 12.7744 4.53774C13.165 4.14725 13.165 3.51409 12.7746 3.12353L11.3602 4.53761ZM11.3301 3.09319L12.0373 2.38615L12.0373 2.38608L11.3301 3.09319ZM8.44937 1.75676L8.14035 0.805704V0.805704L8.44937 1.75676ZM9.68544 1.75676L9.99446 0.805704V0.805704L9.68544 1.75676ZM8.77451 7.12334C8.38399 6.73282 7.75082 6.73282 7.3603 7.12334C6.96977 7.51386 6.96977 8.14703 7.3603 8.53755L8.77451 7.12334ZM11.3603 12.5376C11.7508 12.9281 12.384 12.9281 12.7745 12.5376C13.165 12.147 13.165 11.5139 12.7745 11.1233L11.3603 12.5376ZM17.3643 5.1196C17.3577 5.12617 17.3511 5.13274 17.3446 5.13933C17.338 5.14591 17.3314 5.15251 17.3248 5.15912C17.3181 5.16573 17.3115 5.17235 17.3049 5.17899C17.2983 5.18562 17.2916 5.19227 17.285 5.19892C17.2783 5.20558 17.2716 5.21225 17.265 5.21893C17.2583 5.22561 17.2516 5.2323 17.2449 5.239C17.2382 5.24571 17.2315 5.25242 17.2247 5.25915C17.218 5.26587 17.2113 5.27261 17.2045 5.27936C17.1978 5.28611 17.191 5.29287 17.1842 5.29964C17.1775 5.30641 17.1707 5.3132 17.1639 5.31999C17.1571 5.32679 17.1503 5.33359 17.1435 5.34041C17.1367 5.34722 17.1298 5.35405 17.123 5.36089C17.1161 5.36773 17.1093 5.37458 17.1024 5.38144C17.0956 5.3883 17.0887 5.39518 17.0818 5.40206C17.0749 5.40894 17.068 5.41584 17.0611 5.42274C17.0542 5.42965 17.0473 5.43656 17.0404 5.44349C17.0335 5.45042 17.0265 5.45736 17.0196 5.4643C17.0126 5.47125 17.0057 5.47821 16.9987 5.48518C16.9917 5.49215 16.9847 5.49913 16.9778 5.50613C16.9708 5.51312 16.9638 5.52012 16.9567 5.52713C16.9497 5.53415 16.9427 5.54117 16.9357 5.5482C16.9286 5.55524 16.9216 5.56228 16.9145 5.56934C16.9075 5.57639 16.9004 5.58346 16.8933 5.59053C16.8863 5.59761 16.8792 5.60469 16.8721 5.61179C16.865 5.61889 16.8579 5.62599 16.8508 5.63311C16.8437 5.64023 16.8365 5.64736 16.8294 5.65449C16.8223 5.66163 16.8151 5.66878 16.8079 5.67594C16.8008 5.68309 16.7936 5.69026 16.7864 5.69744C16.7793 5.70462 16.7721 5.71181 16.7649 5.719C16.7577 5.7262 16.7505 5.73341 16.7433 5.74063C16.736 5.74785 16.7288 5.75507 16.7216 5.76231C16.7143 5.76955 16.7071 5.7768 16.6998 5.78405C16.6926 5.79131 16.6853 5.79858 16.678 5.80586C16.6707 5.81313 16.6635 5.82042 16.6562 5.82772C16.6489 5.83501 16.6416 5.84232 16.6342 5.84963C16.6269 5.85695 16.6196 5.86427 16.6123 5.87161C16.6049 5.87894 16.5976 5.88629 16.5902 5.89364C16.5829 5.90099 16.5755 5.90836 16.5682 5.91573C16.5608 5.9231 16.5534 5.93048 16.546 5.93788C16.5386 5.94527 16.5312 5.95267 16.5238 5.96008C16.5164 5.96749 16.509 5.97491 16.5015 5.98233C16.4941 5.98976 16.4867 5.9972 16.4792 6.00465C16.4718 6.01209 16.4643 6.01955 16.4569 6.02701C16.4494 6.03448 16.4419 6.04195 16.4344 6.04943C16.427 6.05692 16.4195 6.06441 16.412 6.07191C16.4045 6.07941 16.397 6.08692 16.3894 6.09444C16.3819 6.10196 16.3744 6.10948 16.3669 6.11702C16.3593 6.12456 16.3518 6.1321 16.3442 6.13965C16.3367 6.14721 16.3291 6.15477 16.3215 6.16234C16.314 6.16991 16.3064 6.17749 16.2988 6.18508C16.2912 6.19267 16.2836 6.20026 16.276 6.20787C16.2684 6.21548 16.2608 6.22309 16.2532 6.23071C16.2455 6.23833 16.2379 6.24597 16.2303 6.2536C16.2226 6.26124 16.215 6.26889 16.2073 6.27655C16.1997 6.2842 16.192 6.29187 16.1843 6.29954C16.1767 6.30721 16.169 6.31489 16.1613 6.32258C16.1536 6.33027 16.1459 6.33797 16.1382 6.34567C16.1305 6.35338 16.1228 6.36109 16.1151 6.36881C16.1073 6.37653 16.0996 6.38426 16.0919 6.392C16.0841 6.39974 16.0764 6.40748 16.0686 6.41524C16.0609 6.42299 16.0531 6.43075 16.0454 6.43852C16.0376 6.44629 16.0298 6.45407 16.022 6.46185C16.0142 6.46964 16.0065 6.47743 15.9987 6.48523C15.9909 6.49303 15.983 6.50084 15.9752 6.50865C15.9674 6.51647 15.9596 6.52429 15.9518 6.53212C15.9439 6.53995 15.9361 6.54779 15.9282 6.55564C15.9204 6.56348 15.9125 6.57134 15.9047 6.5792C15.8968 6.58706 15.889 6.59493 15.8811 6.6028C15.8732 6.61068 15.8653 6.61856 15.8574 6.62645C15.8495 6.63434 15.8416 6.64224 15.8337 6.65015C15.8258 6.65805 15.8179 6.66596 15.81 6.67388C15.8021 6.6818 15.7942 6.68973 15.7862 6.69766C15.7783 6.7056 15.7703 6.71354 15.7624 6.72148C15.7544 6.72943 15.7465 6.73739 15.7385 6.74535C15.7306 6.75331 15.7226 6.76128 15.7146 6.76926C15.7066 6.77723 15.6987 6.78522 15.6907 6.79321C15.6827 6.8012 15.6747 6.80919 15.6667 6.81719C15.6587 6.8252 15.6507 6.83321 15.6427 6.84123C15.6346 6.84924 15.6266 6.85727 15.6186 6.8653C15.6106 6.87333 15.6025 6.88136 15.5945 6.88941C15.5864 6.89745 15.5784 6.9055 15.5703 6.91356C15.5623 6.92161 15.5542 6.92968 15.5461 6.93775C15.5381 6.94582 15.53 6.95389 15.5219 6.96197C15.5138 6.97006 15.5057 6.97815 15.4976 6.98624C15.4895 6.99434 15.4814 7.00244 15.4733 7.01054C15.4652 7.01865 15.4571 7.02677 15.449 7.03489C15.4409 7.04301 15.4327 7.05113 15.4246 7.05927C15.4165 7.0674 15.4083 7.07554 15.4002 7.08368C15.3921 7.09183 15.3839 7.09998 15.3757 7.10813C15.3676 7.11629 15.3594 7.12445 15.3513 7.13262C15.3431 7.14079 15.3349 7.14896 15.3267 7.15714C15.3186 7.16532 15.3104 7.17351 15.3022 7.1817C15.294 7.18989 15.2858 7.19809 15.2776 7.2063C15.2694 7.2145 15.2612 7.22271 15.253 7.23092C15.2447 7.23914 15.2365 7.24736 15.2283 7.25559C15.2201 7.26381 15.2118 7.27204 15.2036 7.28028C15.1954 7.28852 15.1871 7.29676 15.1789 7.30501C15.1706 7.31326 15.1624 7.32151 15.1541 7.32977C15.1459 7.33803 15.1376 7.34629 15.1293 7.35456C15.121 7.36283 15.1128 7.37111 15.1045 7.37939C15.0962 7.38767 15.0879 7.39595 15.0796 7.40424C15.0713 7.41253 15.0631 7.42083 15.0547 7.42913C15.0464 7.43743 15.0381 7.44574 15.0298 7.45405C15.0215 7.46236 15.0132 7.47068 15.0049 7.479C14.9966 7.48732 14.9882 7.49565 14.9799 7.50398C14.9716 7.51231 14.9632 7.52064 14.9549 7.52899C14.9466 7.53733 14.9382 7.54567 14.9299 7.55402C14.9215 7.56237 14.9132 7.57073 14.9048 7.57909C14.8964 7.58745 14.8881 7.59581 14.8797 7.60418C14.8713 7.61255 14.863 7.62093 14.8546 7.62931C14.8462 7.63768 14.8378 7.64607 14.8294 7.65446C14.821 7.66284 14.8126 7.67124 14.8042 7.67963C14.7959 7.68803 14.7875 7.69643 14.779 7.70484C14.7706 7.71324 14.7622 7.72165 14.7538 7.73007C14.7454 7.73848 14.737 7.7469 14.7286 7.75532C14.7201 7.76374 14.7117 7.77217 14.7033 7.7806C14.6948 7.78903 14.6864 7.79747 14.678 7.80591C14.6695 7.81435 14.6611 7.82279 14.6526 7.83124C14.6442 7.83969 14.6357 7.84814 14.6273 7.8566C14.6188 7.86505 14.6104 7.87351 14.6019 7.88198C14.5934 7.89044 14.585 7.89891 14.5765 7.90738C14.568 7.91585 14.5596 7.92433 14.5511 7.9328C14.5426 7.94128 14.5341 7.94977 14.5256 7.95825C14.5171 7.96674 14.5087 7.97523 14.5002 7.98372C14.4917 7.99222 14.4832 8.00072 14.4747 8.00922C14.4662 8.01772 14.4577 8.02622 14.4492 8.03473C14.4406 8.04324 14.4321 8.05175 14.4236 8.06027C14.4151 8.06878 14.4066 8.0773 14.3981 8.08582C14.3895 8.09435 14.381 8.10287 14.3725 8.1114C14.364 8.11993 14.3554 8.12846 14.3469 8.137C14.3383 8.14553 14.3298 8.15407 14.3213 8.16261C14.3127 8.17115 14.3042 8.1797 14.2956 8.18825C14.2871 8.1968 14.2785 8.20535 14.27 8.2139C14.2614 8.22246 14.2529 8.23101 14.2443 8.23957C14.2357 8.24813 14.2272 8.2567 14.2186 8.26526C14.2101 8.27383 14.2015 8.2824 14.1929 8.29097C14.1843 8.29954 14.1758 8.30812 14.1672 8.3167C14.1586 8.32527 14.15 8.33386 14.1414 8.34244C14.1329 8.35102 14.1243 8.35961 14.1157 8.3682C14.1071 8.37678 14.0985 8.38538 14.0899 8.39397C14.0813 8.40256 14.0727 8.41116 14.0641 8.41976C14.0555 8.42836 14.0469 8.43696 14.0383 8.44556C14.0297 8.45417 14.0211 8.46277 14.0125 8.47138C14.0039 8.47999 13.9953 8.4886 13.9867 8.49722C13.9781 8.50583 13.9694 8.51444 13.9608 8.52306C13.9522 8.53168 13.9436 8.5403 13.935 8.54892C13.9263 8.55755 13.9177 8.56617 13.9091 8.5748C13.9005 8.58342 13.8918 8.59205 13.8832 8.60068C13.8746 8.60931 13.8659 8.61795 13.8573 8.62658C13.8487 8.63522 13.84 8.64385 13.8314 8.65249C13.8228 8.66113 13.8141 8.66977 13.8055 8.67842C13.7968 8.68706 13.7882 8.6957 13.7795 8.70435C13.7709 8.71299 13.7622 8.72164 13.7536 8.73029C13.7449 8.73894 13.7363 8.74759 13.7276 8.75625C13.719 8.7649 13.7103 8.77355 13.7017 8.78221C13.693 8.79087 13.6844 8.79953 13.6757 8.80819C13.667 8.81684 13.6584 8.82551 13.6497 8.83417C13.6411 8.84283 13.6324 8.85149 13.6237 8.86016C13.6151 8.86882 13.6064 8.87749 13.5977 8.88616C13.5891 8.89483 13.5804 8.9035 13.5717 8.91217C13.563 8.92084 13.5544 8.92951 13.5457 8.93818C13.537 8.94686 13.5284 8.95553 13.5197 8.9642C13.511 8.97288 13.5023 8.98156 13.4936 8.99023C13.485 8.99891 13.4763 9.00759 13.4676 9.01627C13.4589 9.02495 13.4503 9.03363 13.4416 9.04231C13.4329 9.05099 13.4242 9.05967 13.4155 9.06836C13.4068 9.07704 13.3982 9.08572 13.3895 9.09441C13.3808 9.10309 13.3721 9.11178 13.3634 9.12047C13.3547 9.12915 13.346 9.13784 13.3374 9.14653C13.3287 9.15521 13.32 9.1639 13.3113 9.17259C13.3026 9.18128 13.2939 9.18997 13.2852 9.19866C13.2765 9.20735 13.2678 9.21604 13.2592 9.22473C13.2505 9.23342 13.2418 9.24211 13.2331 9.2508C13.2244 9.2595 13.2157 9.26819 13.207 9.27688C13.1983 9.28557 13.1896 9.29427 13.1809 9.30296C13.1722 9.31165 13.1635 9.32035 13.1548 9.32904C13.1461 9.33773 13.1375 9.34643 13.1288 9.35512C13.1201 9.36381 13.1114 9.37251 13.1027 9.3812C13.094 9.3899 13.0853 9.39859 13.0766 9.40728C13.0679 9.41598 13.0592 9.42467 13.0505 9.43337C13.0418 9.44206 13.0331 9.45075 13.0244 9.45945C13.0157 9.46814 13.007 9.47683 12.9984 9.48553C12.9897 9.49422 12.981 9.50291 12.9723 9.51161C12.9636 9.5203 12.9549 9.52899 12.9462 9.53768C12.9375 9.54638 12.9288 9.55507 12.9201 9.56376C12.9114 9.57245 12.9027 9.58114 12.894 9.58983C12.8854 9.59852 12.8767 9.60721 12.868 9.6159C12.8593 9.62459 12.8506 9.63328 12.8419 9.64197C12.8332 9.65066 12.8245 9.65934 12.8159 9.66803C12.8072 9.67672 12.7985 9.6854 12.7898 9.69409C12.7811 9.70278 12.7724 9.71146 12.7637 9.72014C12.7551 9.72883 12.7464 9.73751 12.7377 9.74619C12.729 9.75488 12.7203 9.76356 12.7116 9.77224C12.703 9.78092 12.6943 9.7896 12.6856 9.79828C12.6769 9.80695 12.6683 9.81563 12.6596 9.82431C12.6509 9.83298 12.6422 9.84166 12.6335 9.85033C12.6249 9.85901 12.6162 9.86768 12.6075 9.87635C12.5989 9.88502 12.5902 9.89369 12.5815 9.90236C12.5728 9.91103 12.5642 9.9197 12.5555 9.92837C12.5468 9.93703 12.5382 9.9457 12.5295 9.95436C12.5209 9.96303 12.5122 9.97169 12.5035 9.98035C12.4949 9.98901 12.4862 9.99767 12.4776 10.0063C12.4689 10.015 12.4602 10.0236 12.4516 10.0323C12.4429 10.041 12.4343 10.0496 12.4256 10.0583C12.417 10.0669 12.4083 10.0756 12.3997 10.0842C12.391 10.0929 12.3824 10.1015 12.3737 10.1101C12.3651 10.1188 12.3564 10.1274 12.3478 10.1361C12.3392 10.1447 12.3305 10.1534 12.3219 10.162C12.3133 10.1706 12.3046 10.1793 12.296 10.1879C12.2874 10.1965 12.2787 10.2052 12.2701 10.2138C12.2615 10.2224 12.2528 10.231 12.2442 10.2397C12.2356 10.2483 12.227 10.2569 12.2183 10.2655C12.2097 10.2742 12.2011 10.2828 12.1925 10.2914C12.1839 10.3 12.1753 10.3086 12.1667 10.3172C12.158 10.3258 12.1494 10.3344 12.1408 10.3431C12.1322 10.3517 12.1236 10.3603 12.115 10.3689C12.1064 10.3775 12.0978 10.3861 12.0892 10.3947C12.0806 10.4033 12.072 10.4119 12.0634 10.4204C12.0548 10.429 12.0463 10.4376 12.0377 10.4462C12.0291 10.4548 12.0205 10.4634 12.0119 10.472C12.0033 10.4805 11.9948 10.4891 11.9862 10.4977C11.9776 10.5063 11.969 10.5148 11.9605 10.5234C11.9519 10.532 11.9433 10.5405 11.9348 10.5491C11.9262 10.5577 11.9177 10.5662 11.9091 10.5748C11.9005 10.5833 11.892 10.5919 11.8834 10.6005C11.8749 10.609 11.8663 10.6175 11.8578 10.6261C11.8492 10.6346 11.8407 10.6432 11.8322 10.6517C11.8236 10.6603 11.8151 10.6688 11.8066 10.6773C11.798 10.6859 11.7895 10.6944 11.781 10.7029C11.7724 10.7114 11.7639 10.72 11.7554 10.7285C11.7469 10.737 11.7384 10.7455 11.7299 10.754C11.7213 10.7625 11.7128 10.771 11.7043 10.7796C11.6958 10.7881 11.6873 10.7966 11.6788 10.8051C11.6703 10.8136 11.6618 10.822 11.6533 10.8305C11.6449 10.839 11.6364 10.8475 11.6279 10.856C11.6194 10.8645 11.6109 10.873 11.6024 10.8814C11.594 10.8899 11.5855 10.8984 11.577 10.9068C11.5686 10.9153 11.5601 10.9238 11.5516 10.9322C11.5432 10.9407 11.5347 10.9492 11.5263 10.9576C11.5178 10.9661 11.5094 10.9745 11.5009 10.9829C11.4925 10.9914 11.484 10.9998 11.4756 11.0083C11.4672 11.0167 11.4587 11.0251 11.4503 11.0336C11.4419 11.042 11.4335 11.0504 11.4251 11.0588C11.4166 11.0672 11.4082 11.0757 11.3998 11.0841C11.3914 11.0925 11.383 11.1009 11.3746 11.1093C11.3662 11.1177 11.3578 11.1261 11.3494 11.1345C11.341 11.1429 11.3326 11.1513 11.3242 11.1596C11.3159 11.168 11.3075 11.1764 11.2991 11.1848C11.2907 11.1932 11.2824 11.2015 11.274 11.2099C11.2656 11.2183 11.2573 11.2266 11.2489 11.235C11.2406 11.2433 11.2322 11.2517 11.2239 11.26C11.2155 11.2684 11.2072 11.2767 11.1988 11.285C11.1905 11.2934 11.1822 11.3017 11.1738 11.31C11.1655 11.3184 11.1572 11.3267 11.1489 11.335C11.1406 11.3433 11.1323 11.3516 11.124 11.3599C11.1156 11.3682 11.1073 11.3765 11.099 11.3848C11.0908 11.3931 11.0825 11.4014 11.0742 11.4097C11.0659 11.418 11.0576 11.4263 11.0493 11.4345C11.0411 11.4428 11.0328 11.4511 11.0245 11.4594C11.0163 11.4676 11.008 11.4759 10.9998 11.4841C10.9915 11.4924 10.9832 11.5006 10.975 11.5089C10.9668 11.5171 10.9585 11.5254 10.9503 11.5336C10.9421 11.5418 10.9338 11.55 10.9256 11.5583C10.9174 11.5665 10.9092 11.5747 10.901 11.5829C10.8928 11.5911 10.8846 11.5993 10.8764 11.6075C10.8682 11.6157 10.86 11.6239 10.8518 11.6321C10.8436 11.6403 10.8354 11.6485 10.8272 11.6566C10.8191 11.6648 10.8109 11.673 10.8027 11.6811C10.7946 11.6893 10.7864 11.6975 10.7783 11.7056C10.7701 11.7138 10.762 11.7219 10.7538 11.73C10.7457 11.7382 10.7376 11.7463 10.7294 11.7544C10.7213 11.7626 10.7132 11.7707 10.7051 11.7788C10.697 11.7869 10.6889 11.795 10.6808 11.8031C10.6727 11.8112 10.6646 11.8193 10.6565 11.8274C10.6484 11.8355 10.6403 11.8436 10.6322 11.8517C10.6241 11.8597 10.6161 11.8678 10.608 11.8759C10.6 11.8839 10.5919 11.892 10.5838 11.9C10.5758 11.9081 10.5678 11.9161 10.5597 11.9242C10.5517 11.9322 10.5436 11.9402 10.5356 11.9483C10.5276 11.9563 10.5196 11.9643 10.5116 11.9723C10.5036 11.9803 10.4956 11.9883 10.4876 11.9963C10.4796 12.0043 10.4716 12.0123 10.4636 12.0203C10.4556 12.0283 10.4476 12.0362 10.4397 12.0442C10.4317 12.0522 10.4237 12.0601 10.4158 12.0681C10.4078 12.0761 10.3999 12.084 10.3919 12.0919C10.384 12.0999 10.3761 12.1078 10.3681 12.1157C10.3602 12.1237 10.3523 12.1316 10.3444 12.1395C10.3365 12.1474 10.3286 12.1553 10.3207 12.1632C10.3128 12.1711 10.3049 12.179 10.297 12.1869C10.2891 12.1948 10.2812 12.2026 10.2734 12.2105C10.2655 12.2184 10.2576 12.2262 10.2498 12.2341C10.2419 12.2419 10.2341 12.2498 10.2262 12.2576C10.2184 12.2655 10.2106 12.2733 10.2028 12.2811C10.1949 12.2889 10.1871 12.2968 10.1793 12.3046C10.1715 12.3124 10.1637 12.3202 10.1559 12.328C10.1481 12.3358 10.1403 12.3435 10.1326 12.3513C10.1248 12.3591 10.117 12.3669 10.1092 12.3746C10.1015 12.3824 10.0937 12.3901 10.086 12.3979C10.0782 12.4056 10.0705 12.4134 10.0628 12.4211C10.055 12.4288 10.0473 12.4366 10.0396 12.4443C10.0319 12.452 10.0242 12.4597 10.0165 12.4674C10.0088 12.4751 10.0011 12.4828 9.99343 12.4904C9.98575 12.4981 9.97808 12.5058 9.97042 12.5135C9.96275 12.5211 9.9551 12.5288 9.94745 12.5364C9.9398 12.5441 9.93216 12.5517 9.92453 12.5594C9.9169 12.567 9.90928 12.5746 9.90166 12.5822C9.89405 12.5898 9.88645 12.5974 9.87885 12.605C9.87125 12.6126 9.86366 12.6202 9.85608 12.6278C9.84851 12.6354 9.84093 12.6429 9.83337 12.6505C9.82581 12.6581 9.81826 12.6656 9.81071 12.6732C9.80317 12.6807 9.79563 12.6882 9.7881 12.6958C9.78058 12.7033 9.77306 12.7108 9.76555 12.7183C9.75804 12.7258 9.75054 12.7333 9.74305 12.7408C9.73556 12.7483 9.72807 12.7558 9.7206 12.7633C9.71313 12.7708 9.70566 12.7782 9.69821 12.7857C9.69075 12.7931 9.6833 12.8006 9.67587 12.808C9.66843 12.8155 9.661 12.8229 9.65358 12.8303C9.64616 12.8377 9.63875 12.8451 9.63135 12.8525C9.62395 12.8599 9.61656 12.8673 9.60918 12.8747C9.6018 12.8821 9.59443 12.8895 9.58706 12.8968C9.5797 12.9042 9.57235 12.9115 9.565 12.9189C9.55766 12.9262 9.55033 12.9336 9.543 12.9409C9.53568 12.9482 9.52836 12.9555 9.52105 12.9628C9.51375 12.9701 9.50645 12.9774 9.49917 12.9847C9.49188 12.992 9.4846 12.9993 9.47734 13.0065C9.47007 13.0138 9.46281 13.0211 9.45556 13.0283C9.44832 13.0356 9.44108 13.0428 9.43385 13.05C9.42662 13.0573 9.41941 13.0645 9.4122 13.0717C9.40499 13.0789 9.39779 13.0861 9.3906 13.0933C9.38342 13.1005 9.37624 13.1076 9.36907 13.1148C9.3619 13.122 9.35475 13.1291 9.3476 13.1363C9.34045 13.1434 9.33331 13.1506 9.32619 13.1577C9.31906 13.1648 9.31194 13.1719 9.30484 13.179C9.29773 13.1862 9.29063 13.1932 9.28355 13.2003C9.27646 13.2074 9.26938 13.2145 9.26232 13.2216C9.25525 13.2286 9.2482 13.2357 9.24115 13.2427C9.23411 13.2498 9.22708 13.2568 9.22005 13.2638C9.21303 13.2709 9.20602 13.2779 9.19902 13.2849C9.19201 13.2919 9.18502 13.2989 9.17804 13.3058C9.17106 13.3128 9.16409 13.3198 9.15713 13.3268C9.15017 13.3337 9.14322 13.3407 9.13629 13.3476C9.12935 13.3545 9.12242 13.3615 9.11551 13.3684C9.10859 13.3753 9.10168 13.3822 9.09479 13.3891C9.0879 13.396 9.08101 13.4029 9.07414 13.4097C9.06727 13.4166 9.06041 13.4235 9.05356 13.4303C9.04671 13.4372 9.03987 13.444 9.03304 13.4508C9.02621 13.4577 9.0194 13.4645 9.01259 13.4713C9.00578 13.4781 8.99899 13.4849 8.99221 13.4917C8.98542 13.4985 8.97865 13.5052 8.97189 13.512C8.96513 13.5187 8.95838 13.5255 8.95165 13.5322C8.94491 13.539 8.93818 13.5457 8.93147 13.5524C8.92475 13.5591 8.91805 13.5658 8.91136 13.5725C8.90467 13.5792 8.89799 13.5859 8.89132 13.5926C8.88465 13.5992 8.87799 13.6059 8.87135 13.6125C8.8647 13.6192 8.85807 13.6258 8.85145 13.6324C8.84483 13.6391 8.83822 13.6457 8.83162 13.6523C8.82502 13.6589 8.81844 13.6654 8.81186 13.672C8.80529 13.6786 8.79872 13.6852 8.79217 13.6917C8.78562 13.6983 8.77909 13.7048 8.77256 13.7113C8.76603 13.7178 8.75952 13.7244 8.75302 13.7309C8.74651 13.7374 8.74002 13.7439 8.73354 13.7503C8.72707 13.7568 8.7206 13.7633 8.71415 13.7697C8.70769 13.7762 8.70125 13.7826 8.69482 13.7891C8.68839 13.7955 8.68198 13.8019 8.67557 13.8083C8.66917 13.8147 8.66278 13.8211 8.6564 13.8275C8.65002 13.8339 8.64365 13.8402 8.63729 13.8466C8.63094 13.8529 8.6246 13.8593 8.61827 13.8656C8.61194 13.8719 8.60562 13.8783 8.59932 13.8846C8.59301 13.8909 8.58672 13.8972 8.58044 13.9034C8.57416 13.9097 8.56789 13.916 8.56164 13.9222C8.55539 13.9285 8.54915 13.9347 8.54292 13.941C8.53669 13.9472 8.53047 13.9534 8.52427 13.9596C8.51807 13.9658 8.51188 13.972 8.5057 13.9782C8.49953 13.9844 8.49336 13.9905 8.48721 13.9967C8.48106 14.0028 8.47492 14.009 8.4688 14.0151C8.46267 14.0212 8.45656 14.0273 8.45046 14.0334C8.44437 14.0395 8.43828 14.0456 8.43221 14.0517C8.42614 14.0577 8.42008 14.0638 8.41403 14.0698C8.40799 14.0759 8.40195 14.0819 8.39594 14.0879C8.38992 14.094 8.38391 14.1 8.37792 14.106C8.37193 14.112 8.36595 14.1179 8.35998 14.1239C8.35402 14.1299 8.34807 14.1358 8.34213 14.1418C8.33619 14.1477 8.33027 14.1536 8.32436 14.1595C8.31845 14.1654 8.31255 14.1713 8.30666 14.1772C8.30078 14.1831 8.29491 14.189 8.28906 14.1948C8.2832 14.2007 8.27736 14.2065 8.27153 14.2124C8.2657 14.2182 8.25989 14.224 8.25408 14.2298C8.24828 14.2356 8.2425 14.2414 8.23672 14.2472C8.23095 14.2529 8.22519 14.2587 8.21945 14.2644C8.2137 14.2702 8.20797 14.2759 8.20225 14.2816C8.19654 14.2873 8.19084 14.293 8.18515 14.2987C8.17946 14.3044 8.17378 14.3101 8.16812 14.3158C8.16246 14.3214 8.15682 14.3271 8.15119 14.3327C8.14555 14.3383 8.13994 14.3439 8.13433 14.3495C8.12873 14.3552 8.12314 14.3607 8.11757 14.3663C8.11199 14.3719 8.10643 14.3774 8.10089 14.383C8.09534 14.3885 8.08981 14.3941 8.0843 14.3996C8.07878 14.4051 8.07328 14.4106 8.06779 14.4161C8.0623 14.4216 8.05683 14.427 8.05137 14.4325C8.04592 14.438 8.04047 14.4434 8.03505 14.4488C8.02962 14.4543 8.0242 14.4597 8.01881 14.4651C8.01341 14.4705 8.00802 14.4759 8.00265 14.4812C7.99728 14.4866 7.99193 14.492 7.98659 14.4973C7.98125 14.5026 7.97593 14.508 7.97062 14.5133C7.96531 14.5186 7.96002 14.5239 7.95474 14.5291C7.94946 14.5344 7.94419 14.5397 7.93895 14.5449C7.9337 14.5502 7.92846 14.5554 7.92324 14.5606C7.91803 14.5659 7.91282 14.5711 7.90764 14.5762C7.90245 14.5814 7.89728 14.5866 7.89212 14.5918C7.88696 14.5969 7.88182 14.6021 7.87669 14.6072C7.87157 14.6123 7.86646 14.6174 7.86136 14.6225C7.85626 14.6276 7.85118 14.6327 7.84612 14.6378C7.84106 14.6428 7.83601 14.6479 7.83097 14.6529C7.82594 14.6579 7.82092 14.663 7.81592 14.668C7.81092 14.673 7.80593 14.6779 7.80096 14.6829C7.79599 14.6879 7.79104 14.6928 7.7861 14.6978C7.78116 14.7027 7.77624 14.7076 7.77133 14.7126C7.76642 14.7175 7.76153 14.7224 7.75666 14.7272C7.75178 14.7321 7.74692 14.737 7.74208 14.7418C7.73723 14.7466 7.73241 14.7515 7.7276 14.7563C7.72278 14.7611 7.71799 14.7659 7.71321 14.7707C7.70843 14.7754 7.70367 14.7802 7.69892 14.785C7.69418 14.7897 7.68945 14.7944 7.68473 14.7991C7.68002 14.8039 7.67532 14.8086 7.67064 14.8132C7.66596 14.8179 7.66129 14.8226 7.65664 14.8272C7.652 14.8319 7.64736 14.8365 7.64275 14.8411C7.63813 14.8457 7.63353 14.8503 7.62895 14.8549C7.62437 14.8595 7.6198 14.8641 7.61525 14.8686C7.6107 14.8732 7.60617 14.8777 7.60165 14.8822C7.59714 14.8867 7.59264 14.8912 7.58816 14.8957C7.58367 14.9002 7.57921 14.9047 7.57476 14.9091C7.57031 14.9136 7.56588 14.918 7.56146 14.9224C7.55705 14.9268 7.55265 14.9312 7.54827 14.9356C7.54389 14.94 7.53952 14.9444 7.53517 14.9487C7.53083 14.9531 7.5265 14.9574 7.52218 14.9617C7.51787 14.966 7.51357 14.9703 7.50929 14.9746C7.50501 14.9789 7.50075 14.9831 7.49651 14.9874C7.49226 14.9916 7.48804 14.9958 7.48383 15.0001C7.47962 15.0043 7.47542 15.0085 7.47125 15.0126C7.46707 15.0168 7.46291 15.021 7.45877 15.0251C7.45463 15.0293 7.45051 15.0334 7.4464 15.0375C7.4423 15.0416 7.43821 15.0457 7.43414 15.0497C7.43007 15.0538 7.42601 15.0579 7.42198 15.0619C7.41794 15.0659 7.41392 15.07 7.40992 15.074C7.40592 15.078 7.40194 15.0819 7.39798 15.0859C7.39401 15.0899 7.39007 15.0938 7.38614 15.0977C7.38221 15.1017 7.3783 15.1056 7.3744 15.1095C7.37051 15.1134 7.36663 15.1172 7.36278 15.1211C7.35892 15.125 7.35508 15.1288 7.35126 15.1326C7.34743 15.1364 7.34363 15.1403 7.33985 15.144C7.33606 15.1478 7.33229 15.1516 7.32854 15.1553C7.32479 15.1591 7.32106 15.1628 7.31735 15.1665C7.31364 15.1702 7.30994 15.1739 7.30627 15.1776C7.30259 15.1813 7.29893 15.1849 7.29529 15.1886C7.29165 15.1922 7.28803 15.1958 7.28443 15.1995C7.28083 15.2031 7.27724 15.2066 7.27368 15.2102C7.27011 15.2138 7.26656 15.2173 7.26303 15.2208C7.2595 15.2244 7.25599 15.2279 7.2525 15.2314C7.24901 15.2349 7.24554 15.2383 7.24208 15.2418C7.23863 15.2453 7.23519 15.2487 7.23178 15.2521C7.22836 15.2555 7.22496 15.2589 7.22158 15.2623C7.2182 15.2657 7.21484 15.269 7.2115 15.2724C7.20816 15.2757 7.20484 15.279 7.20153 15.2823C7.19823 15.2857 7.19494 15.2889 7.19168 15.2922C7.18841 15.2955 7.18517 15.2987 7.18194 15.3019C7.17871 15.3052 7.1755 15.3084 7.17231 15.3116C7.16912 15.3148 7.16595 15.3179 7.1628 15.3211C7.15965 15.3242 7.15652 15.3274 7.15341 15.3305C7.1503 15.3336 7.1472 15.3367 7.14413 15.3398C7.14106 15.3428 7.138 15.3459 7.13497 15.3489C7.13193 15.352 7.12891 15.355 7.12592 15.358C7.12292 15.361 7.11995 15.3639 7.11699 15.3669C7.11403 15.3698 7.11109 15.3728 7.10818 15.3757C7.10526 15.3786 7.10236 15.3815 7.09948 15.3844C7.0966 15.3873 7.09375 15.3901 7.09091 15.393C7.08807 15.3958 7.08525 15.3986 7.08245 15.4014C7.07965 15.4042 7.07687 15.407 7.07411 15.4098C7.07135 15.4125 7.06861 15.4153 7.06589 15.418C7.06317 15.4207 7.06047 15.4234 7.05779 15.4261C7.05511 15.4288 7.05245 15.4314 7.04981 15.4341C7.04717 15.4367 7.04455 15.4393 7.04195 15.4419C7.03935 15.4445 7.03677 15.4471 7.03422 15.4497C7.03166 15.4522 7.02912 15.4548 7.0266 15.4573C7.02408 15.4598 7.02158 15.4623 7.0191 15.4648C7.01663 15.4673 7.01417 15.4697 7.01173 15.4721C7.00929 15.4746 7.00688 15.477 7.00448 15.4794C7.00209 15.4818 6.99971 15.4842 6.99736 15.4865C6.995 15.4889 6.99267 15.4912 6.99035 15.4935C6.98804 15.4958 6.98574 15.4981 6.98347 15.5004C6.9812 15.5027 6.97895 15.5049 6.97672 15.5072C6.97449 15.5094 6.97228 15.5116 6.97009 15.5138C6.9679 15.516 6.96573 15.5182 6.96358 15.5203C6.96143 15.5224 6.9593 15.5246 6.9572 15.5267C6.95509 15.5288 6.95301 15.5309 6.95094 15.5329C6.94888 15.535 6.94684 15.537 6.94482 15.5391C6.94279 15.5411 6.94079 15.5431 6.93881 15.5451C6.93683 15.547 6.93488 15.549 6.93294 15.5509C6.931 15.5529 6.92909 15.5548 6.92719 15.5567C6.9253 15.5586 6.92342 15.5605 6.92157 15.5623C6.91972 15.5642 6.91789 15.566 6.91608 15.5678C6.91427 15.5696 6.91248 15.5714 6.91072 15.5732C6.90895 15.5749 6.90721 15.5767 6.90548 15.5784C6.90376 15.5801 6.90206 15.5818 6.90038 15.5835C6.8987 15.5852 6.89704 15.5868 6.8954 15.5885C6.89377 15.5901 6.89215 15.5917 6.89056 15.5933C6.88896 15.5949 6.88739 15.5965 6.88584 15.598C6.88429 15.5996 6.88277 15.6011 6.88126 15.6026C6.87976 15.6041 6.87827 15.6056 6.87681 15.6071C6.87535 15.6085 6.87391 15.61 6.87249 15.6114C6.87107 15.6128 6.86968 15.6142 6.8683 15.6156C6.86693 15.617 6.86558 15.6183 6.86425 15.6196C6.86292 15.621 6.86161 15.6223 6.86032 15.6236L8.27454 17.0378C8.27582 17.0365 8.27713 17.0352 8.27846 17.0338C8.27979 17.0325 8.28114 17.0312 8.28251 17.0298C8.28389 17.0284 8.28528 17.027 8.2867 17.0256C8.28812 17.0242 8.28956 17.0227 8.29102 17.0213C8.29248 17.0198 8.29397 17.0183 8.29547 17.0168C8.29698 17.0153 8.29851 17.0138 8.30006 17.0123C8.30161 17.0107 8.30318 17.0091 8.30477 17.0075C8.30636 17.0059 8.30798 17.0043 8.30962 17.0027C8.31125 17.0011 8.31291 16.9994 8.31459 16.9977C8.31627 16.996 8.31797 16.9943 8.3197 16.9926C8.32142 16.9909 8.32316 16.9891 8.32493 16.9874C8.3267 16.9856 8.32848 16.9838 8.33029 16.982C8.3321 16.9802 8.33393 16.9784 8.33578 16.9765C8.33764 16.9747 8.33951 16.9728 8.3414 16.9709C8.3433 16.969 8.34522 16.9671 8.34715 16.9652C8.34909 16.9632 8.35105 16.9613 8.35303 16.9593C8.35501 16.9573 8.35701 16.9553 8.35903 16.9533C8.36105 16.9513 8.36309 16.9492 8.36516 16.9472C8.36722 16.9451 8.36931 16.943 8.37141 16.9409C8.37352 16.9388 8.37565 16.9367 8.37779 16.9345C8.37994 16.9324 8.38211 16.9302 8.3843 16.928C8.38649 16.9258 8.3887 16.9236 8.39093 16.9214C8.39316 16.9191 8.39541 16.9169 8.39769 16.9146C8.39996 16.9124 8.40225 16.9101 8.40457 16.9077C8.40688 16.9054 8.40921 16.9031 8.41157 16.9007C8.41392 16.8984 8.4163 16.896 8.4187 16.8936C8.42109 16.8912 8.42351 16.8888 8.42595 16.8864C8.42838 16.8839 8.43084 16.8815 8.43332 16.879C8.4358 16.8765 8.43829 16.874 8.44081 16.8715C8.44333 16.869 8.44587 16.8664 8.44843 16.8639C8.45099 16.8613 8.45357 16.8587 8.45617 16.8561C8.45877 16.8535 8.46139 16.8509 8.46403 16.8483C8.46667 16.8456 8.46933 16.843 8.472 16.8403C8.47468 16.8376 8.47738 16.8349 8.4801 16.8322C8.48282 16.8295 8.48556 16.8267 8.48832 16.824C8.49108 16.8212 8.49386 16.8184 8.49666 16.8156C8.49946 16.8128 8.50228 16.81 8.50512 16.8072C8.50796 16.8043 8.51082 16.8015 8.5137 16.7986C8.51657 16.7957 8.51947 16.7928 8.52239 16.7899C8.52531 16.787 8.52825 16.7841 8.5312 16.7811C8.53416 16.7781 8.53714 16.7752 8.54013 16.7722C8.54313 16.7692 8.54614 16.7662 8.54918 16.7631C8.55221 16.7601 8.55527 16.757 8.55834 16.754C8.56142 16.7509 8.56451 16.7478 8.56762 16.7447C8.57073 16.7416 8.57387 16.7384 8.57702 16.7353C8.58017 16.7321 8.58334 16.729 8.58653 16.7258C8.58972 16.7226 8.59293 16.7194 8.59615 16.7162C8.59938 16.7129 8.60263 16.7097 8.60589 16.7064C8.60916 16.7032 8.61244 16.6999 8.61575 16.6966C8.61905 16.6933 8.62237 16.6899 8.62571 16.6866C8.62906 16.6833 8.63242 16.6799 8.6358 16.6765C8.63918 16.6731 8.64257 16.6697 8.64599 16.6663C8.64941 16.6629 8.65284 16.6595 8.6563 16.656C8.65975 16.6526 8.66322 16.6491 8.66672 16.6456C8.67021 16.6421 8.67372 16.6386 8.67725 16.6351C8.68078 16.6315 8.68432 16.628 8.68789 16.6244C8.69146 16.6209 8.69504 16.6173 8.69864 16.6137C8.70225 16.6101 8.70587 16.6064 8.70951 16.6028C8.71315 16.5992 8.7168 16.5955 8.72048 16.5918C8.72416 16.5882 8.72785 16.5845 8.73156 16.5807C8.73528 16.577 8.73901 16.5733 8.74276 16.5696C8.74651 16.5658 8.75027 16.562 8.75406 16.5582C8.75784 16.5545 8.76165 16.5507 8.76547 16.5468C8.76929 16.543 8.77313 16.5392 8.77699 16.5353C8.78085 16.5315 8.78472 16.5276 8.78862 16.5237C8.79251 16.5198 8.79642 16.5159 8.80035 16.512C8.80428 16.508 8.80823 16.5041 8.81219 16.5001C8.81616 16.4962 8.82014 16.4922 8.82414 16.4882C8.82814 16.4842 8.83216 16.4802 8.83619 16.4761C8.84023 16.4721 8.84428 16.468 8.84835 16.464C8.85242 16.4599 8.85651 16.4558 8.86062 16.4517C8.86472 16.4476 8.86884 16.4435 8.87299 16.4393C8.87713 16.4352 8.88128 16.431 8.88546 16.4268C8.88964 16.4227 8.89383 16.4185 8.89804 16.4143C8.90225 16.4101 8.90648 16.4058 8.91072 16.4016C8.91497 16.3973 8.91923 16.3931 8.92351 16.3888C8.92779 16.3845 8.93208 16.3802 8.9364 16.3759C8.94071 16.3716 8.94504 16.3673 8.94939 16.3629C8.95373 16.3586 8.9581 16.3542 8.96248 16.3498C8.96686 16.3454 8.97126 16.341 8.97568 16.3366C8.98009 16.3322 8.98452 16.3278 8.98897 16.3233C8.99342 16.3189 8.99789 16.3144 9.00237 16.3099C9.00685 16.3055 9.01135 16.301 9.01587 16.2964C9.02038 16.2919 9.02492 16.2874 9.02947 16.2828C9.03401 16.2783 9.03858 16.2737 9.04316 16.2691C9.04775 16.2646 9.05235 16.26 9.05696 16.2553C9.06158 16.2507 9.06621 16.2461 9.07086 16.2415C9.07551 16.2368 9.08017 16.2321 9.08485 16.2275C9.08953 16.2228 9.09423 16.2181 9.09895 16.2134C9.10366 16.2086 9.10839 16.2039 9.11314 16.1992C9.11788 16.1944 9.12265 16.1897 9.12742 16.1849C9.1322 16.1801 9.137 16.1753 9.14181 16.1705C9.14662 16.1657 9.15145 16.1609 9.15629 16.156C9.16113 16.1512 9.16599 16.1463 9.17087 16.1414C9.17574 16.1366 9.18064 16.1317 9.18554 16.1268C9.19045 16.1219 9.19537 16.1169 9.20031 16.112C9.20525 16.1071 9.21021 16.1021 9.21518 16.0971C9.22015 16.0922 9.22513 16.0872 9.23013 16.0822C9.23514 16.0772 9.24015 16.0722 9.24519 16.0671C9.25022 16.0621 9.25527 16.057 9.26033 16.052C9.2654 16.0469 9.27048 16.0418 9.27557 16.0367C9.28067 16.0316 9.28578 16.0265 9.29091 16.0214C9.29603 16.0163 9.30117 16.0111 9.30633 16.006C9.31149 16.0008 9.31666 15.9956 9.32185 15.9905C9.32704 15.9853 9.33224 15.9801 9.33746 15.9748C9.34268 15.9696 9.34791 15.9644 9.35316 15.9591C9.35841 15.9539 9.36367 15.9486 9.36895 15.9434C9.37423 15.9381 9.37952 15.9328 9.38483 15.9275C9.39014 15.9222 9.39547 15.9168 9.40081 15.9115C9.40614 15.9062 9.4115 15.9008 9.41687 15.8954C9.42224 15.8901 9.42762 15.8847 9.43302 15.8793C9.43842 15.8739 9.44383 15.8685 9.44926 15.863C9.45469 15.8576 9.46013 15.8522 9.46559 15.8467C9.47105 15.8413 9.47652 15.8358 9.48201 15.8303C9.48749 15.8248 9.49299 15.8193 9.49851 15.8138C9.50403 15.8083 9.50956 15.8028 9.5151 15.7972C9.52065 15.7917 9.52621 15.7861 9.53178 15.7805C9.53736 15.775 9.54294 15.7694 9.54855 15.7638C9.55415 15.7582 9.55977 15.7525 9.5654 15.7469C9.57103 15.7413 9.57668 15.7356 9.58234 15.73C9.588 15.7243 9.59367 15.7186 9.59936 15.7129C9.60505 15.7073 9.61075 15.7016 9.61647 15.6958C9.62219 15.6901 9.62792 15.6844 9.63366 15.6786C9.63941 15.6729 9.64516 15.6671 9.65094 15.6614C9.65671 15.6556 9.6625 15.6498 9.6683 15.644C9.6741 15.6382 9.67991 15.6324 9.68574 15.6266C9.69157 15.6207 9.69741 15.6149 9.70327 15.609C9.70912 15.6032 9.71499 15.5973 9.72088 15.5914C9.72676 15.5855 9.73266 15.5796 9.73857 15.5737C9.74448 15.5678 9.75041 15.5619 9.75634 15.556C9.76228 15.55 9.76823 15.5441 9.7742 15.5381C9.78016 15.5321 9.78614 15.5262 9.79213 15.5202C9.79813 15.5142 9.80413 15.5082 9.81015 15.5022C9.81617 15.4961 9.8222 15.4901 9.82825 15.4841C9.83429 15.478 9.84035 15.472 9.84642 15.4659C9.85249 15.4598 9.85858 15.4537 9.86468 15.4476C9.87078 15.4415 9.87689 15.4354 9.88301 15.4293C9.88914 15.4232 9.89527 15.417 9.90142 15.4109C9.90758 15.4047 9.91374 15.3986 9.91992 15.3924C9.92609 15.3862 9.93228 15.38 9.93848 15.3738C9.94469 15.3676 9.9509 15.3614 9.95713 15.3552C9.96336 15.349 9.9696 15.3427 9.97585 15.3365C9.98211 15.3302 9.98837 15.3239 9.99465 15.3177C10.0009 15.3114 10.0072 15.3051 10.0135 15.2988C10.0198 15.2925 10.0262 15.2862 10.0325 15.2798C10.0388 15.2735 10.0452 15.2672 10.0515 15.2608C10.0579 15.2544 10.0642 15.2481 10.0706 15.2417C10.077 15.2353 10.0834 15.2289 10.0898 15.2225C10.0962 15.2161 10.1026 15.2097 10.109 15.2033C10.1155 15.1968 10.1219 15.1904 10.1284 15.1839C10.1348 15.1775 10.1413 15.171 10.1478 15.1645C10.1542 15.1581 10.1607 15.1516 10.1672 15.1451C10.1737 15.1386 10.1802 15.1321 10.1868 15.1255C10.1933 15.119 10.1998 15.1125 10.2064 15.1059C10.2129 15.0994 10.2195 15.0928 10.2261 15.0862C10.2326 15.0797 10.2392 15.0731 10.2458 15.0665C10.2524 15.0599 10.259 15.0533 10.2657 15.0466C10.2723 15.04 10.2789 15.0334 10.2856 15.0267C10.2922 15.0201 10.2989 15.0134 10.3055 15.0068C10.3122 15.0001 10.3189 14.9934 10.3256 14.9867C10.3323 14.98 10.339 14.9733 10.3457 14.9666C10.3524 14.9599 10.3591 14.9532 10.3659 14.9464C10.3726 14.9397 10.3793 14.933 10.3861 14.9262C10.3929 14.9194 10.3996 14.9127 10.4064 14.9059C10.4132 14.8991 10.42 14.8923 10.4268 14.8855C10.4336 14.8787 10.4404 14.8719 10.4473 14.8651C10.4541 14.8582 10.4609 14.8514 10.4678 14.8445C10.4746 14.8377 10.4815 14.8308 10.4884 14.824C10.4952 14.8171 10.5021 14.8102 10.509 14.8033C10.5159 14.7964 10.5228 14.7895 10.5297 14.7826C10.5366 14.7757 10.5436 14.7687 10.5505 14.7618C10.5574 14.7549 10.5644 14.7479 10.5713 14.741C10.5783 14.734 10.5853 14.727 10.5923 14.7201C10.5992 14.7131 10.6062 14.7061 10.6132 14.6991C10.6202 14.6921 10.6272 14.6851 10.6343 14.678C10.6413 14.671 10.6483 14.664 10.6554 14.6569C10.6624 14.6499 10.6695 14.6428 10.6765 14.6358C10.6836 14.6287 10.6907 14.6216 10.6978 14.6145C10.7048 14.6075 10.7119 14.6004 10.719 14.5933C10.7262 14.5862 10.7333 14.579 10.7404 14.5719C10.7475 14.5648 10.7547 14.5576 10.7618 14.5505C10.769 14.5433 10.7761 14.5362 10.7833 14.529C10.7905 14.5219 10.7976 14.5147 10.8048 14.5075C10.812 14.5003 10.8192 14.4931 10.8264 14.4859C10.8336 14.4787 10.8408 14.4715 10.8481 14.4642C10.8553 14.457 10.8625 14.4498 10.8698 14.4425C10.877 14.4353 10.8843 14.428 10.8915 14.4208C10.8988 14.4135 10.9061 14.4062 10.9134 14.3989C10.9207 14.3916 10.928 14.3843 10.9353 14.377C10.9426 14.3697 10.9499 14.3624 10.9572 14.3551C10.9645 14.3478 10.9719 14.3404 10.9792 14.3331C10.9866 14.3257 10.9939 14.3184 11.0013 14.311C11.0086 14.3037 11.016 14.2963 11.0234 14.2889C11.0308 14.2815 11.0382 14.2741 11.0456 14.2667C11.053 14.2593 11.0604 14.2519 11.0678 14.2445C11.0752 14.2371 11.0826 14.2297 11.0901 14.2222C11.0975 14.2148 11.105 14.2073 11.1124 14.1999C11.1199 14.1924 11.1273 14.185 11.1348 14.1775C11.1423 14.17 11.1498 14.1625 11.1573 14.155C11.1648 14.1476 11.1723 14.1401 11.1798 14.1325C11.1873 14.125 11.1948 14.1175 11.2023 14.11C11.2098 14.1025 11.2174 14.0949 11.2249 14.0874C11.2325 14.0798 11.24 14.0723 11.2476 14.0647C11.2551 14.0572 11.2627 14.0496 11.2703 14.042C11.2779 14.0344 11.2855 14.0268 11.2931 14.0192C11.3007 14.0116 11.3083 14.004 11.3159 13.9964C11.3235 13.9888 11.3311 13.9812 11.3387 13.9736C11.3464 13.9659 11.354 13.9583 11.3617 13.9506C11.3693 13.943 11.377 13.9353 11.3846 13.9277C11.3923 13.92 11.4 13.9123 11.4076 13.9047C11.4153 13.897 11.423 13.8893 11.4307 13.8816C11.4384 13.8739 11.4461 13.8662 11.4538 13.8585C11.4615 13.8508 11.4693 13.843 11.477 13.8353C11.4847 13.8276 11.4925 13.8199 11.5002 13.8121C11.5079 13.8044 11.5157 13.7966 11.5235 13.7888C11.5312 13.7811 11.539 13.7733 11.5468 13.7655C11.5545 13.7578 11.5623 13.75 11.5701 13.7422C11.5779 13.7344 11.5857 13.7266 11.5935 13.7188C11.6013 13.711 11.6091 13.7032 11.617 13.6953C11.6248 13.6875 11.6326 13.6797 11.6405 13.6718C11.6483 13.664 11.6561 13.6562 11.664 13.6483C11.6719 13.6405 11.6797 13.6326 11.6876 13.6247C11.6954 13.6169 11.7033 13.609 11.7112 13.6011C11.7191 13.5932 11.727 13.5853 11.7349 13.5774C11.7428 13.5695 11.7507 13.5616 11.7586 13.5537C11.7665 13.5458 11.7744 13.5379 11.7824 13.53C11.7903 13.522 11.7982 13.5141 11.8062 13.5062C11.8141 13.4982 11.822 13.4903 11.83 13.4823C11.838 13.4744 11.8459 13.4664 11.8539 13.4584C11.8619 13.4505 11.8698 13.4425 11.8778 13.4345C11.8858 13.4265 11.8938 13.4185 11.9018 13.4105C11.9098 13.4025 11.9178 13.3945 11.9258 13.3865C11.9338 13.3785 11.9418 13.3705 11.9498 13.3625C11.9579 13.3544 11.9659 13.3464 11.9739 13.3384C11.982 13.3303 11.99 13.3223 11.9981 13.3142C12.0061 13.3062 12.0142 13.2981 12.0222 13.2901C12.0303 13.282 12.0384 13.2739 12.0464 13.2659C12.0545 13.2578 12.0626 13.2497 12.0707 13.2416C12.0788 13.2335 12.0869 13.2254 12.095 13.2173C12.1031 13.2092 12.1112 13.2011 12.1193 13.193C12.1274 13.1849 12.1355 13.1768 12.1437 13.1687C12.1518 13.1605 12.1599 13.1524 12.168 13.1443C12.1762 13.1361 12.1843 13.128 12.1925 13.1198C12.2006 13.1117 12.2088 13.1035 12.217 13.0954C12.2251 13.0872 12.2333 13.079 12.2415 13.0709C12.2496 13.0627 12.2578 13.0545 12.266 13.0463C12.2742 13.0381 12.2824 13.0299 12.2906 13.0217C12.2988 13.0135 12.307 13.0053 12.3152 12.9971C12.3234 12.9889 12.3316 12.9807 12.3398 12.9725C12.3481 12.9643 12.3563 12.956 12.3645 12.9478C12.3727 12.9396 12.381 12.9313 12.3892 12.9231C12.3975 12.9148 12.4057 12.9066 12.414 12.8983C12.4222 12.8901 12.4305 12.8818 12.4387 12.8736C12.447 12.8653 12.4553 12.857 12.4635 12.8488C12.4718 12.8405 12.4801 12.8322 12.4884 12.8239C12.4967 12.8156 12.505 12.8073 12.5133 12.799C12.5216 12.7908 12.5299 12.7825 12.5382 12.7741C12.5465 12.7658 12.5548 12.7575 12.5631 12.7492C12.5714 12.7409 12.5797 12.7326 12.5881 12.7242C12.5964 12.7159 12.6047 12.7076 12.6131 12.6993C12.6214 12.6909 12.6297 12.6826 12.6381 12.6742C12.6464 12.6659 12.6548 12.6575 12.6631 12.6492C12.6715 12.6408 12.6798 12.6325 12.6882 12.6241C12.6966 12.6157 12.7049 12.6074 12.7133 12.599C12.7217 12.5906 12.7301 12.5822 12.7385 12.5739C12.7468 12.5655 12.7552 12.5571 12.7636 12.5487C12.772 12.5403 12.7804 12.5319 12.7888 12.5235C12.7972 12.5151 12.8056 12.5067 12.814 12.4983C12.8224 12.4899 12.8308 12.4815 12.8393 12.473C12.8477 12.4646 12.8561 12.4562 12.8645 12.4478C12.873 12.4393 12.8814 12.4309 12.8898 12.4225C12.8983 12.414 12.9067 12.4056 12.9151 12.3972C12.9236 12.3887 12.932 12.3803 12.9405 12.3718C12.9489 12.3634 12.9574 12.3549 12.9659 12.3465C12.9743 12.338 12.9828 12.3295 12.9912 12.3211C12.9997 12.3126 13.0082 12.3041 13.0167 12.2956C13.0251 12.2872 13.0336 12.2787 13.0421 12.2702C13.0506 12.2617 13.0591 12.2532 13.0676 12.2447C13.076 12.2363 13.0845 12.2278 13.093 12.2193C13.1015 12.2108 13.11 12.2023 13.1185 12.1938C13.127 12.1853 13.1356 12.1768 13.1441 12.1682C13.1526 12.1597 13.1611 12.1512 13.1696 12.1427C13.1781 12.1342 13.1867 12.1257 13.1952 12.1171C13.2037 12.1086 13.2122 12.1001 13.2208 12.0915C13.2293 12.083 13.2378 12.0745 13.2464 12.0659C13.2549 12.0574 13.2635 12.0489 13.272 12.0403C13.2805 12.0318 13.2891 12.0232 13.2976 12.0147C13.3062 12.0061 13.3147 11.9976 13.3233 11.989C13.3319 11.9804 13.3404 11.9719 13.349 11.9633C13.3576 11.9548 13.3661 11.9462 13.3747 11.9376C13.3833 11.9291 13.3918 11.9205 13.4004 11.9119C13.409 11.9033 13.4176 11.8948 13.4261 11.8862C13.4347 11.8776 13.4433 11.869 13.4519 11.8604C13.4605 11.8518 13.4691 11.8432 13.4777 11.8347C13.4862 11.8261 13.4948 11.8175 13.5034 11.8089C13.512 11.8003 13.5206 11.7917 13.5292 11.7831C13.5378 11.7745 13.5464 11.7659 13.555 11.7573C13.5636 11.7487 13.5723 11.7401 13.5809 11.7314C13.5895 11.7228 13.5981 11.7142 13.6067 11.7056C13.6153 11.697 13.6239 11.6884 13.6326 11.6797C13.6412 11.6711 13.6498 11.6625 13.6584 11.6539C13.6671 11.6453 13.6757 11.6366 13.6843 11.628C13.6929 11.6194 13.7016 11.6107 13.7102 11.6021C13.7188 11.5935 13.7275 11.5848 13.7361 11.5762C13.7447 11.5676 13.7534 11.5589 13.762 11.5503C13.7707 11.5416 13.7793 11.533 13.7879 11.5244C13.7966 11.5157 13.8052 11.5071 13.8139 11.4984C13.8225 11.4898 13.8312 11.4811 13.8398 11.4725C13.8485 11.4638 13.8571 11.4552 13.8658 11.4465C13.8745 11.4379 13.8831 11.4292 13.8918 11.4205C13.9004 11.4119 13.9091 11.4032 13.9177 11.3946C13.9264 11.3859 13.9351 11.3772 13.9437 11.3686C13.9524 11.3599 13.9611 11.3512 13.9697 11.3426C13.9784 11.3339 13.9871 11.3252 13.9957 11.3166C14.0044 11.3079 14.0131 11.2992 14.0217 11.2906C14.0304 11.2819 14.0391 11.2732 14.0478 11.2645C14.0564 11.2559 14.0651 11.2472 14.0738 11.2385C14.0825 11.2298 14.0911 11.2212 14.0998 11.2125C14.1085 11.2038 14.1172 11.1951 14.1259 11.1865C14.1345 11.1778 14.1432 11.1691 14.1519 11.1604C14.1606 11.1517 14.1693 11.143 14.178 11.1344C14.1866 11.1257 14.1953 11.117 14.204 11.1083C14.2127 11.0996 14.2214 11.0909 14.2301 11.0822C14.2388 11.0736 14.2474 11.0649 14.2561 11.0562C14.2648 11.0475 14.2735 11.0388 14.2822 11.0301C14.2909 11.0214 14.2996 11.0127 14.3083 11.004C14.317 10.9954 14.3256 10.9867 14.3343 10.978C14.343 10.9693 14.3517 10.9606 14.3604 10.9519C14.3691 10.9432 14.3778 10.9345 14.3865 10.9258C14.3952 10.9171 14.4039 10.9084 14.4126 10.8997C14.4213 10.891 14.43 10.8824 14.4386 10.8737C14.4473 10.865 14.456 10.8563 14.4647 10.8476C14.4734 10.8389 14.4821 10.8302 14.4908 10.8215C14.4995 10.8128 14.5082 10.8041 14.5169 10.7954C14.5256 10.7867 14.5343 10.778 14.543 10.7693C14.5517 10.7606 14.5604 10.7519 14.5691 10.7433C14.5777 10.7346 14.5864 10.7259 14.5951 10.7172C14.6038 10.7085 14.6125 10.6998 14.6212 10.6911C14.6299 10.6824 14.6386 10.6737 14.6473 10.665C14.656 10.6563 14.6647 10.6476 14.6734 10.6389C14.6821 10.6303 14.6907 10.6216 14.6994 10.6129C14.7081 10.6042 14.7168 10.5955 14.7255 10.5868C14.7342 10.5781 14.7429 10.5694 14.7516 10.5607C14.7603 10.5521 14.7689 10.5434 14.7776 10.5347C14.7863 10.526 14.795 10.5173 14.8037 10.5086C14.8124 10.4999 14.8211 10.4913 14.8297 10.4826C14.8384 10.4739 14.8471 10.4652 14.8558 10.4565C14.8645 10.4478 14.8731 10.4392 14.8818 10.4305C14.8905 10.4218 14.8992 10.4131 14.9079 10.4044C14.9165 10.3958 14.9252 10.3871 14.9339 10.3784C14.9426 10.3697 14.9512 10.3611 14.9599 10.3524C14.9686 10.3437 14.9773 10.3351 14.9859 10.3264C14.9946 10.3177 15.0033 10.309 15.0119 10.3004C15.0206 10.2917 15.0293 10.283 15.0379 10.2744C15.0466 10.2657 15.0553 10.257 15.0639 10.2484C15.0726 10.2397 15.0813 10.2311 15.0899 10.2224C15.0986 10.2137 15.1072 10.2051 15.1159 10.1964C15.1245 10.1878 15.1332 10.1791 15.1418 10.1705C15.1505 10.1618 15.1592 10.1532 15.1678 10.1445C15.1765 10.1359 15.1851 10.1272 15.1937 10.1186C15.2024 10.1099 15.211 10.1013 15.2197 10.0926C15.2283 10.084 15.237 10.0753 15.2456 10.0667C15.2542 10.0581 15.2629 10.0494 15.2715 10.0408C15.2801 10.0322 15.2888 10.0235 15.2974 10.0149C15.306 10.0063 15.3147 9.99764 15.3233 9.98901C15.3319 9.98038 15.3405 9.97176 15.3492 9.96314C15.3578 9.95451 15.3664 9.94589 15.375 9.93728C15.3837 9.92866 15.3923 9.92004 15.4009 9.91143C15.4095 9.90282 15.4181 9.8942 15.4267 9.8856C15.4353 9.87699 15.4439 9.86838 15.4525 9.85978C15.4611 9.85117 15.4697 9.84257 15.4783 9.83397C15.4869 9.82537 15.4955 9.81678 15.5041 9.80818C15.5127 9.79959 15.5213 9.791 15.5299 9.78241C15.5385 9.77382 15.5471 9.76523 15.5557 9.75665C15.5642 9.74807 15.5728 9.73949 15.5814 9.73091C15.59 9.72233 15.5986 9.71376 15.6071 9.70519C15.6157 9.69661 15.6243 9.68804 15.6328 9.67948C15.6414 9.67091 15.65 9.66235 15.6585 9.65379C15.6671 9.64523 15.6756 9.63667 15.6842 9.62812C15.6927 9.61956 15.7013 9.61101 15.7098 9.60246C15.7184 9.59391 15.7269 9.58537 15.7355 9.57683C15.744 9.56828 15.7526 9.55975 15.7611 9.55121C15.7696 9.54268 15.7782 9.53414 15.7867 9.52561C15.7952 9.51709 15.8037 9.50856 15.8123 9.50004C15.8208 9.49152 15.8293 9.483 15.8378 9.47448C15.8463 9.46597 15.8549 9.45745 15.8634 9.44895C15.8719 9.44044 15.8804 9.43193 15.8889 9.42343C15.8974 9.41493 15.9059 9.40643 15.9144 9.39794C15.9229 9.38944 15.9314 9.38095 15.9398 9.37247C15.9483 9.36398 15.9568 9.3555 15.9653 9.34702C15.9738 9.33854 15.9822 9.33006 15.9907 9.32159C15.9992 9.31312 16.0077 9.30465 16.0161 9.29619C16.0246 9.28773 16.033 9.27927 16.0415 9.27081C16.05 9.26235 16.0584 9.2539 16.0669 9.24545C16.0753 9.23701 16.0837 9.22856 16.0922 9.22012C16.1006 9.21168 16.1091 9.20325 16.1175 9.19482C16.1259 9.18639 16.1344 9.17796 16.1428 9.16954C16.1512 9.16111 16.1596 9.15269 16.168 9.14428C16.1764 9.13587 16.1849 9.12745 16.1933 9.11905C16.2017 9.11064 16.2101 9.10224 16.2185 9.09385C16.2269 9.08545 16.2353 9.07706 16.2436 9.06867C16.252 9.06028 16.2604 9.0519 16.2688 9.04352C16.2772 9.03514 16.2855 9.02677 16.2939 9.0184C16.3023 9.01003 16.3106 9.00166 16.319 8.9933C16.3274 8.98494 16.3357 8.97659 16.3441 8.96824C16.3524 8.95989 16.3608 8.95154 16.3691 8.9432C16.3774 8.93486 16.3858 8.92652 16.3941 8.91819C16.4024 8.90986 16.4108 8.90153 16.4191 8.89321C16.4274 8.88489 16.4357 8.87657 16.444 8.86826C16.4524 8.85995 16.4607 8.85165 16.469 8.84335C16.4773 8.83504 16.4856 8.82675 16.4939 8.81846C16.5021 8.81017 16.5104 8.80188 16.5187 8.7936C16.527 8.78532 16.5353 8.77705 16.5435 8.76878C16.5518 8.76051 16.5601 8.75224 16.5683 8.74398C16.5766 8.73572 16.5848 8.72747 16.5931 8.71922C16.6013 8.71097 16.6096 8.70273 16.6178 8.69449C16.6261 8.68626 16.6343 8.67802 16.6425 8.6698C16.6507 8.66157 16.659 8.65335 16.6672 8.64514C16.6754 8.63692 16.6836 8.62871 16.6918 8.62051C16.7 8.61231 16.7082 8.60411 16.7164 8.59592C16.7246 8.58772 16.7328 8.57954 16.741 8.57136C16.7491 8.56318 16.7573 8.555 16.7655 8.54683C16.7736 8.53867 16.7818 8.5305 16.79 8.52235C16.7981 8.51419 16.8063 8.50604 16.8144 8.49789C16.8226 8.48975 16.8307 8.48161 16.8388 8.47348C16.847 8.46535 16.8551 8.45722 16.8632 8.4491C16.8713 8.44098 16.8794 8.43287 16.8876 8.42476C16.8957 8.41665 16.9038 8.40855 16.9119 8.40045C16.9199 8.39236 16.928 8.38427 16.9361 8.37619C16.9442 8.36811 16.9523 8.36003 16.9603 8.35196C16.9684 8.34389 16.9765 8.33583 16.9845 8.32777C16.9926 8.31971 17.0006 8.31166 17.0087 8.30362C17.0167 8.29558 17.0248 8.28754 17.0328 8.27951C17.0408 8.27148 17.0489 8.26346 17.0569 8.25544C17.0649 8.24742 17.0729 8.23941 17.0809 8.23141C17.0889 8.22341 17.0969 8.21541 17.1049 8.20742C17.1129 8.19943 17.1209 8.19145 17.1288 8.18347C17.1368 8.17549 17.1448 8.16753 17.1527 8.15956C17.1607 8.1516 17.1687 8.14365 17.1766 8.1357C17.1846 8.12775 17.1925 8.11981 17.2004 8.11188C17.2084 8.10394 17.2163 8.09601 17.2242 8.0881C17.2321 8.08018 17.24 8.07226 17.2479 8.06436C17.2559 8.05645 17.2638 8.04856 17.2716 8.04067C17.2795 8.03277 17.2874 8.02489 17.2953 8.01702C17.3032 8.00914 17.311 8.00127 17.3189 7.99341C17.3268 7.98555 17.3346 7.9777 17.3425 7.96985C17.3503 7.962 17.3581 7.95417 17.366 7.94633C17.3738 7.9385 17.3816 7.93068 17.3894 7.92287C17.3973 7.91505 17.4051 7.90724 17.4129 7.89944C17.4207 7.89164 17.4285 7.88385 17.4362 7.87606C17.444 7.86828 17.4518 7.8605 17.4596 7.85273C17.4673 7.84496 17.4751 7.8372 17.4829 7.82945C17.4906 7.8217 17.4984 7.81395 17.5061 7.80621C17.5138 7.79848 17.5216 7.79075 17.5293 7.78303C17.537 7.7753 17.5447 7.76759 17.5524 7.75989C17.5601 7.75218 17.5678 7.74448 17.5755 7.73679C17.5832 7.72911 17.5909 7.72143 17.5986 7.71375C17.6062 7.70608 17.6139 7.69842 17.6215 7.69076C17.6292 7.6831 17.6369 7.67546 17.6445 7.66782C17.6521 7.66018 17.6598 7.65255 17.6674 7.64493C17.675 7.6373 17.6826 7.62969 17.6902 7.62208C17.6978 7.61448 17.7054 7.60688 17.713 7.59929C17.7206 7.59171 17.7282 7.58413 17.7358 7.57655C17.7433 7.56898 17.7509 7.56142 17.7584 7.55387C17.766 7.54631 17.7735 7.53877 17.7811 7.53123C17.7886 7.5237 17.7961 7.51617 17.8037 7.50865C17.8112 7.50113 17.8187 7.49362 17.8262 7.48612C17.8337 7.47862 17.8412 7.47113 17.8487 7.46365C17.8561 7.45617 17.8636 7.44869 17.8711 7.44123C17.8785 7.43376 17.886 7.42631 17.8934 7.41886C17.9009 7.41141 17.9083 7.40398 17.9158 7.39655C17.9232 7.38912 17.9306 7.3817 17.938 7.37429C17.9454 7.36688 17.9528 7.35948 17.9602 7.35209C17.9676 7.3447 17.975 7.33732 17.9824 7.32994C17.9897 7.32257 17.9971 7.31521 18.0045 7.30785C18.0118 7.3005 18.0192 7.29316 18.0265 7.28582C18.0338 7.27849 18.0411 7.27116 18.0485 7.26385C18.0558 7.25653 18.0631 7.24923 18.0704 7.24193C18.0777 7.23463 18.085 7.22735 18.0922 7.22007C18.0995 7.21279 18.1068 7.20553 18.114 7.19827C18.1213 7.19101 18.1285 7.18376 18.1358 7.17653C18.143 7.16929 18.1502 7.16206 18.1575 7.15484C18.1647 7.14762 18.1719 7.14042 18.1791 7.13322C18.1863 7.12602 18.1935 7.11883 18.2007 7.11165C18.2078 7.10448 18.215 7.09731 18.2222 7.09015C18.2293 7.08299 18.2365 7.07584 18.2436 7.06871C18.2507 7.06157 18.2579 7.05444 18.265 7.04732C18.2721 7.04021 18.2792 7.0331 18.2863 7.026C18.2934 7.01891 18.3005 7.01182 18.3076 7.00475C18.3146 6.99767 18.3217 6.9906 18.3288 6.98355C18.3358 6.97649 18.3429 6.96945 18.3499 6.96242C18.3569 6.95538 18.364 6.94836 18.371 6.94135C18.378 6.93433 18.385 6.92733 18.392 6.92034C18.399 6.91335 18.4059 6.90637 18.4129 6.8994C18.4199 6.89243 18.4268 6.88547 18.4338 6.87852C18.4407 6.87157 18.4477 6.86463 18.4546 6.8577C18.4615 6.85078 18.4684 6.84386 18.4754 6.83696C18.4823 6.83005 18.4892 6.82316 18.496 6.81627C18.5029 6.80939 18.5098 6.80252 18.5167 6.79566C18.5235 6.78879 18.5304 6.78194 18.5372 6.77511C18.544 6.76827 18.5509 6.76144 18.5577 6.75462C18.5645 6.7478 18.5713 6.741 18.5781 6.7342C18.5849 6.72741 18.5917 6.72063 18.5985 6.71386C18.6052 6.70708 18.612 6.70032 18.6187 6.69357C18.6255 6.68682 18.6322 6.68009 18.6389 6.67336C18.6457 6.66664 18.6524 6.65992 18.6591 6.65322C18.6658 6.64651 18.6725 6.63982 18.6792 6.63314C18.6858 6.62646 18.6925 6.61979 18.6992 6.61314C18.7058 6.60648 18.7125 6.59983 18.7191 6.5932C18.7257 6.58657 18.7324 6.57995 18.739 6.57334C18.7456 6.56673 18.7522 6.56013 18.7588 6.55354C18.7654 6.54695 18.7719 6.54038 18.7785 6.53382L17.3643 5.1196ZM4.27438 13.0374C4.93245 12.3794 11.4182 5.89364 14.7782 2.53358L13.364 1.11937C10.004 4.47946 3.51825 10.9652 2.86023 11.6232L4.27438 13.0374ZM6.86032 15.6236C6.10967 16.3742 4.75534 17.0278 3.451 17.4518C2.8156 17.6584 2.23991 17.7949 1.82161 17.8591C1.60853 17.8918 1.46555 17.9012 1.38888 17.9C1.34896 17.8993 1.35785 17.8961 1.39742 17.905C1.40987 17.9078 1.59584 17.9446 1.77441 18.1232L0.360201 19.5374C0.582957 19.7602 0.844006 19.8305 0.959283 19.8564C1.10168 19.8884 1.24115 19.8978 1.35644 19.8997C1.59016 19.9035 1.85605 19.8773 2.12523 19.8359C2.67143 19.752 3.3538 19.5864 4.06932 19.3538C5.46682 18.8995 7.18581 18.1265 8.27454 17.0378L6.86032 15.6236ZM1.77441 18.1232C1.95695 18.3057 1.99268 18.4968 1.99512 18.5082C2.00369 18.5479 2.00031 18.5566 2.00002 18.5156C1.99946 18.437 2.01032 18.2915 2.04512 18.0755C2.11342 17.6516 2.25518 17.0693 2.46556 16.4291C2.89839 15.1117 3.55234 13.7594 4.27438 13.0374L2.86023 11.6232C1.79769 12.6856 1.0249 14.4066 0.565497 15.8048C0.329764 16.5222 0.159042 17.2083 0.0705792 17.7574C0.0269914 18.028 -0.00160229 18.2952 7.02739e-05 18.5298C0.000894606 18.6454 0.00905925 18.7858 0.0399268 18.9291C0.064673 19.0441 0.133475 19.3107 0.360201 19.5374L1.77441 18.1232ZM17.3603 2.53763C18.0762 3.2536 18.0765 4.40736 17.3643 5.1196L18.7785 6.53382C20.2755 5.03684 20.2678 2.61678 18.7746 1.12346L17.3603 2.53763ZM18.7746 1.12346C17.2813 -0.369929 14.8611 -0.377672 13.364 1.11937L14.7782 2.53358C15.4905 1.8213 16.6443 1.82163 17.3603 2.53763L18.7746 1.12346ZM6.09756 2.38608L4.3603 4.12334L5.77451 5.53755L7.51177 3.8003L6.09756 2.38608ZM12.7746 3.12353L12.0373 2.38615L10.623 3.80023L11.3602 4.53761L12.7746 3.12353ZM7.51177 3.8003C7.91945 3.39261 8.18324 3.12992 8.39996 2.94594C8.60775 2.76954 8.70561 2.72496 8.75839 2.70782L8.14035 0.805704C7.73647 0.936933 7.408 1.16455 7.1056 1.42126C6.81214 1.67039 6.4819 2.00173 6.09756 2.38608L7.51177 3.8003ZM12.0373 2.38608C11.6529 2.00173 11.3227 1.67039 11.0292 1.42126C10.7268 1.16455 10.3983 0.936933 9.99446 0.805704L9.37642 2.70782C9.4292 2.72496 9.52706 2.76954 9.73485 2.94594C9.95157 3.12992 10.2154 3.39261 10.623 3.80029L12.0373 2.38608ZM8.75839 2.70782C8.95923 2.64256 9.17558 2.64256 9.37642 2.70782L9.99446 0.805704C9.39192 0.60993 8.74288 0.60993 8.14035 0.805704L8.75839 2.70782ZM7.3603 8.53755L11.3603 12.5376L12.7745 11.1233L8.77451 7.12334L7.3603 8.53755Z" fill="#131A29"/>
</svg>
